<svg width="165" height="80" viewBox="0 0 165 80" fill="none" xmlns="http://www.w3.org/2000/svg">
<rect y="-0.00195312" width="165" height="80" rx="20" fill="#FFCF01"/>
<path d="M137.941 37.2389L124.925 28.7069C123.514 27.7822 121.225 27.7822 119.813 28.7056C118.399 29.6303 118.399 31.1297 119.811 32.0545L130.275 38.9139L119.811 45.7721C118.399 46.6968 118.399 48.1962 119.813 49.1209C120.52 49.5814 121.442 49.8135 122.369 49.8135C123.295 49.8135 124.22 49.5827 124.925 49.117L137.941 40.585C139.353 39.6617 139.353 38.1638 137.941 37.2389Z" fill="white"/>
<path d="M124.613 38.9015C124.613 37.5944 122.995 36.5337 120.997 36.5337H116.802C108.627 36.5337 107.46 43.6406 106.333 50.5116C105.843 53.4924 104.733 60.2595 102.63 60.9688C99.9031 58.746 98.8535 46.5228 98.2169 39.1259C96.8126 22.7675 95.7059 14.2305 87.7386 14.2305C79.7691 14.2305 78.6644 22.7701 77.2583 39.1324C76.6531 46.1906 75.6679 57.6431 73.2118 60.6046C70.7518 57.6456 69.7686 46.1854 69.1614 39.1246C67.7551 22.7662 66.6504 14.2305 58.6771 14.2305C50.7116 14.2305 49.6089 22.7662 48.2065 39.1209C47.572 46.5177 46.5221 58.7449 43.7959 60.9688C41.6903 60.2609 40.5819 53.4925 40.0922 50.5116C38.9659 43.6406 37.7986 36.5337 29.6236 36.5337C27.6255 36.5339 26 37.5907 26 38.8976C26 40.2046 27.6118 41.2601 29.6077 41.2601C31.4076 41.9156 32.3771 47.836 32.9 51.0169C34.0889 58.2662 35.3189 65.7643 44.1559 65.7643C52.7403 65.7643 53.9783 56.232 55.4237 39.3861C55.9898 32.7961 56.8064 23.2675 58.6789 19.852C60.5531 23.265 61.372 32.7974 61.9379 39.3913C63.3833 56.2359 64.6192 65.7656 73.2114 65.7656C81.7919 65.7656 83.0298 56.2384 84.4772 39.399C85.0433 32.8037 85.8639 23.2675 87.7382 19.852C89.6107 23.2663 90.4293 32.7987 90.9971 39.3926C92.4426 56.2359 93.6805 65.7656 102.265 65.7656C111.102 65.7656 112.332 58.2675 113.521 51.0182C114.044 47.836 115.013 41.9167 116.799 41.2704H120.997C122.995 41.2705 124.613 40.2085 124.613 38.9015Z" fill="white"/>
</svg>
