<svg width="54" height="54" viewBox="0 0 54 54" fill="none" xmlns="http://www.w3.org/2000/svg">
<g clip-path="url(#clip0_4520_757)">
<path d="M51.8248 36.0072L37.0961 26.9978L51.8243 17.9883C51.9499 17.9115 52.0591 17.8107 52.1457 17.6916C52.2323 17.5725 52.2946 17.4376 52.3291 17.2945C52.3636 17.1513 52.3695 17.0028 52.3465 16.8574C52.3236 16.7119 52.2722 16.5724 52.1954 16.4469L47.8675 9.37239C47.7907 9.24676 47.6898 9.13749 47.5708 9.05082C47.4518 8.96415 47.3168 8.90178 47.1737 8.86727C47.0305 8.83276 46.882 8.82678 46.7366 8.84969C46.5911 8.87259 46.4516 8.92393 46.326 9.00076L32.2666 17.6016V1.11911C32.2666 0.821787 32.1484 0.53664 31.9382 0.326399C31.728 0.116159 31.4428 -0.00195312 31.1455 -0.00195312L22.8534 -0.00195312C22.5561 -0.00195312 22.271 0.116159 22.0607 0.326399C21.8505 0.53664 21.7324 0.821787 21.7324 1.11911V17.6016L7.67238 9.00132C7.54677 8.92449 7.40725 8.87315 7.2618 8.85025C7.11634 8.82734 6.9678 8.83332 6.82466 8.86783C6.68151 8.90234 6.54657 8.96471 6.42753 9.05138C6.3085 9.13805 6.2077 9.24732 6.1309 9.37295L1.80299 16.4474C1.64837 16.7012 1.6006 17.0059 1.67015 17.2948C1.7397 17.5837 1.9209 17.8333 2.17406 17.9889L16.9028 26.9978L2.17406 36.0072C2.04836 36.0839 1.93904 36.1847 1.85234 36.3038C1.76564 36.4228 1.70327 36.5578 1.6688 36.701C1.63433 36.8442 1.62844 36.9927 1.65147 37.1382C1.67449 37.2836 1.72598 37.4231 1.80299 37.5487L6.1309 44.6226C6.20765 44.7483 6.30842 44.8576 6.42743 44.9443C6.54645 45.031 6.68139 45.0935 6.82453 45.128C6.96768 45.1626 7.11624 45.1686 7.26171 45.1458C7.40719 45.1229 7.54674 45.0716 7.67238 44.9948L21.7324 36.394V52.8764C21.7324 53.1737 21.8505 53.4589 22.0607 53.6691C22.271 53.8794 22.5561 53.9975 22.8534 53.9975H31.1455C31.4428 53.9975 31.728 53.8794 31.9382 53.6691C32.1484 53.4589 32.2666 53.1737 32.2666 52.8764V36.3945L46.3265 44.9942C46.5802 45.1493 46.885 45.1973 47.1741 45.1277C47.4631 45.0581 47.7127 44.8767 47.868 44.6231L52.1959 37.5487C52.3505 37.2949 52.3983 36.9902 52.3288 36.7013C52.2592 36.4124 52.078 36.1628 51.8248 36.0072Z" fill="#1B1C1E"/>
</g>
<defs>
<clipPath id="clip0_4520_757">
<rect width="54" height="54" fill="white" transform="translate(0 -0.00195312)"/>
</clipPath>
</defs>
</svg>
