<svg width="34" height="30" viewBox="0 0 34 30" fill="none" xmlns="http://www.w3.org/2000/svg">
<g clip-path="url(#clip0_4520_1984)">
<path d="M15.8389 22.0549L7.515 13.5784L5.01001 11.0275L15.8389 0L18.3439 2.55093L10.02 11.0275L18.3439 19.504L15.8389 22.0549Z" fill="#FF9A66"/>
<path d="M10.8289 27.1568L2.50499 18.6803L0 16.1293L2.50499 13.605L13.3078 24.6059L10.8289 27.1568Z" fill="#FF9A66"/>
<path d="M15.8562 0.0101854L5.01941 11.0332L7.50886 13.5712L18.3456 2.54816L15.8562 0.0101854Z" fill="#FF9A66"/>
<path d="M18.0824 7.97168L26.4324 16.4482L28.9113 18.9991L18.0824 30L15.6035 27.4757L23.9274 18.9991L15.6035 10.496L18.0824 7.97168Z" fill="#FF9A66"/>
<path d="M34 13.7909L31.5211 16.3419L20.6923 5.3144L23.1972 2.79004L31.5211 11.2666L34 13.7909Z" fill="#FF9A66"/>
<path d="M26.4472 16.4474L15.6105 27.4705L18.0999 30.0084L28.9367 18.9854L26.4472 16.4474Z" fill="#FF9A66"/>
<path d="M23.3276 24.6323L20.8488 27.1833L23.3276 29.7076L25.8326 27.1833L23.3276 24.6323Z" fill="#FF9A66"/>
<path d="M10.5675 0.29248L8.0625 2.84341L10.5675 5.36777L13.0464 2.84341L10.5675 0.29248Z" fill="#FF9A66"/>
</g>
<defs>
<clipPath id="clip0_4520_1984">
<rect width="34" height="30" fill="white"/>
</clipPath>
</defs>
</svg>
