<svg width="166" height="58" viewBox="0 0 166 58" fill="none" xmlns="http://www.w3.org/2000/svg">
<g clip-path="url(#clip0_4520_1499)">
<path d="M15.8389 36.0549L7.515 27.5784L5.01001 25.0275L15.8389 14L18.3439 16.5509L10.02 25.0275L18.3439 33.504L15.8389 36.0549Z" fill="#FF9A66"/>
<path d="M10.8289 41.1568L2.50499 32.6803L0 30.1293L2.50499 27.605L13.3078 38.6059L10.8289 41.1568Z" fill="#FF9A66"/>
<path d="M15.8562 14.0102L5.01941 25.0332L7.50886 27.5712L18.3456 16.5482L15.8562 14.0102Z" fill="#FF9A66"/>
<path d="M18.0824 21.9717L26.4324 30.4482L28.9113 32.9991L18.0824 44L15.6035 41.4757L23.9274 32.9991L15.6035 24.496L18.0824 21.9717Z" fill="#FF9A66"/>
<path d="M34 27.7909L31.5211 30.3419L20.6923 19.3144L23.1972 16.79L31.5211 25.2666L34 27.7909Z" fill="#FF9A66"/>
<path d="M26.4472 30.4474L15.6105 41.4705L18.0999 44.0084L28.9367 32.9854L26.4472 30.4474Z" fill="#FF9A66"/>
<path d="M23.3276 38.6323L20.8488 41.1833L23.3276 43.7076L25.8326 41.1833L23.3276 38.6323Z" fill="#FF9A66"/>
<path d="M10.5675 14.2922L8.0625 16.8432L10.5675 19.3675L13.0464 16.8432L10.5675 14.2922Z" fill="#FF9A66"/>
</g>
<path d="M50.82 40.3C49.3 40.3 47.89 40.03 46.59 39.49C45.31 38.93 44.19 38.16 43.23 37.18C42.27 36.18 41.53 35.03 41.01 33.73C40.49 32.41 40.23 31 40.23 29.5C40.23 28 40.49 26.6 41.01 25.3C41.53 23.98 42.27 22.83 43.23 21.85C44.19 20.87 45.31 20.1 46.59 19.54C47.89 18.98 49.3 18.7 50.82 18.7C52.52 18.7 53.99 18.98 55.23 19.54C56.47 20.1 57.57 20.86 58.53 21.82L56.19 24.16C55.57 23.48 54.81 22.95 53.91 22.57C53.03 22.19 52 22 50.82 22C49.78 22 48.83 22.18 47.97 22.54C47.11 22.9 46.36 23.42 45.72 24.1C45.1 24.76 44.62 25.55 44.28 26.47C43.94 27.39 43.77 28.4 43.77 29.5C43.77 30.6 43.94 31.61 44.28 32.53C44.62 33.45 45.1 34.25 45.72 34.93C46.36 35.59 47.11 36.1 47.97 36.46C48.83 36.82 49.78 37 50.82 37C52.1 37 53.18 36.81 54.06 36.43C54.96 36.03 55.72 35.49 56.34 34.81L58.68 37.15C57.72 38.13 56.59 38.9 55.29 39.46C53.99 40.02 52.5 40.3 50.82 40.3ZM61.3085 40V18.4H64.6085V40H61.3085ZM74.8812 40.3C73.4812 40.3 72.2112 39.97 71.0712 39.31C69.9312 38.63 69.0212 37.72 68.3412 36.58C67.6812 35.44 67.3512 34.17 67.3512 32.77C67.3512 31.37 67.6812 30.11 68.3412 28.99C69.0212 27.87 69.9312 26.98 71.0712 26.32C72.2112 25.64 73.4812 25.3 74.8812 25.3C76.3012 25.3 77.5812 25.63 78.7212 26.29C79.8612 26.95 80.7612 27.85 81.4212 28.99C82.1012 30.11 82.4412 31.37 82.4412 32.77C82.4412 34.17 82.1012 35.44 81.4212 36.58C80.7612 37.72 79.8612 38.63 78.7212 39.31C77.5812 39.97 76.3012 40.3 74.8812 40.3ZM74.8812 37.12C75.7012 37.12 76.4212 36.94 77.0412 36.58C77.6812 36.2 78.1712 35.68 78.5112 35.02C78.8712 34.36 79.0512 33.61 79.0512 32.77C79.0512 31.93 78.8712 31.19 78.5112 30.55C78.1512 29.91 77.6612 29.41 77.0412 29.05C76.4212 28.67 75.7012 28.48 74.8812 28.48C74.0812 28.48 73.3612 28.67 72.7212 29.05C72.1012 29.41 71.6112 29.91 71.2512 30.55C70.9112 31.19 70.7412 31.93 70.7412 32.77C70.7412 33.61 70.9112 34.36 71.2512 35.02C71.6112 35.68 72.1012 36.2 72.7212 36.58C73.3612 36.94 74.0812 37.12 74.8812 37.12ZM91.0955 40.3C89.8755 40.3 88.7855 40.03 87.8255 39.49C86.8855 38.95 86.1455 38.21 85.6055 37.27C85.0855 36.31 84.8255 35.21 84.8255 33.97V25.6H88.1255V33.82C88.1255 34.52 88.2355 35.12 88.4555 35.62C88.6955 36.1 89.0355 36.47 89.4755 36.73C89.9355 36.99 90.4755 37.12 91.0955 37.12C92.0555 37.12 92.7855 36.84 93.2855 36.28C93.8055 35.7 94.0655 34.88 94.0655 33.82V25.6H97.3655V33.97C97.3655 35.23 97.0955 36.34 96.5555 37.3C96.0355 38.24 95.3055 38.98 94.3655 39.52C93.4255 40.04 92.3355 40.3 91.0955 40.3ZM106.714 40.3C105.414 40.3 104.234 39.97 103.174 39.31C102.134 38.65 101.304 37.76 100.684 36.64C100.084 35.5 99.7835 34.23 99.7835 32.83C99.7835 31.41 100.084 30.14 100.684 29.02C101.304 27.88 102.134 26.98 103.174 26.32C104.234 25.64 105.414 25.3 106.714 25.3C107.814 25.3 108.784 25.54 109.624 26.02C110.484 26.48 111.164 27.12 111.664 27.94C112.164 28.76 112.414 29.69 112.414 30.73V34.87C112.414 35.91 112.164 36.84 111.664 37.66C111.184 38.48 110.514 39.13 109.654 39.61C108.794 40.07 107.814 40.3 106.714 40.3ZM107.254 37.18C108.074 37.18 108.784 37 109.384 36.64C110.004 36.26 110.484 35.74 110.824 35.08C111.164 34.42 111.334 33.66 111.334 32.8C111.334 31.94 111.164 31.18 110.824 30.52C110.484 29.86 110.004 29.35 109.384 28.99C108.784 28.61 108.074 28.42 107.254 28.42C106.454 28.42 105.744 28.61 105.124 28.99C104.524 29.35 104.044 29.86 103.684 30.52C103.344 31.18 103.174 31.94 103.174 32.8C103.174 33.66 103.344 34.42 103.684 35.08C104.044 35.74 104.524 36.26 105.124 36.64C105.744 37 106.454 37.18 107.254 37.18ZM114.424 40H111.124V36.13L111.694 32.62L111.124 29.14V18.4H114.424V40ZM124.686 40.3C123.286 40.3 122.016 39.97 120.876 39.31C119.736 38.63 118.826 37.72 118.146 36.58C117.486 35.44 117.156 34.17 117.156 32.77C117.156 31.37 117.486 30.11 118.146 28.99C118.826 27.87 119.736 26.98 120.876 26.32C122.016 25.64 123.286 25.3 124.686 25.3C126.106 25.3 127.386 25.63 128.526 26.29C129.666 26.95 130.566 27.85 131.226 28.99C131.906 30.11 132.246 31.37 132.246 32.77C132.246 34.17 131.906 35.44 131.226 36.58C130.566 37.72 129.666 38.63 128.526 39.31C127.386 39.97 126.106 40.3 124.686 40.3ZM124.686 37.12C125.506 37.12 126.226 36.94 126.846 36.58C127.486 36.2 127.976 35.68 128.316 35.02C128.676 34.36 128.856 33.61 128.856 32.77C128.856 31.93 128.676 31.19 128.316 30.55C127.956 29.91 127.466 29.41 126.846 29.05C126.226 28.67 125.506 28.48 124.686 28.48C123.886 28.48 123.166 28.67 122.526 29.05C121.906 29.41 121.416 29.91 121.056 30.55C120.716 31.19 120.546 31.93 120.546 32.77C120.546 33.61 120.716 34.36 121.056 35.02C121.416 35.68 121.906 36.2 122.526 36.58C123.166 36.94 123.886 37.12 124.686 37.12ZM144.86 40V31.69C144.86 30.73 144.55 29.94 143.93 29.32C143.33 28.7 142.55 28.39 141.59 28.39C140.95 28.39 140.38 28.53 139.88 28.81C139.38 29.09 138.99 29.48 138.71 29.98C138.43 30.48 138.29 31.05 138.29 31.69L137 30.97C137 29.87 137.24 28.9 137.72 28.06C138.2 27.2 138.86 26.53 139.7 26.05C140.56 25.55 141.52 25.3 142.58 25.3C143.66 25.3 144.62 25.58 145.46 26.14C146.3 26.68 146.96 27.39 147.44 28.27C147.92 29.13 148.16 30.03 148.16 30.97V40H144.86ZM134.99 40V25.6H138.29V40H134.99ZM158.204 40.3C156.764 40.3 155.464 39.98 154.304 39.34C153.164 38.68 152.254 37.78 151.574 36.64C150.914 35.5 150.584 34.22 150.584 32.8C150.584 31.38 150.914 30.11 151.574 28.99C152.234 27.85 153.124 26.95 154.244 26.29C155.384 25.63 156.644 25.3 158.024 25.3C159.364 25.3 160.544 25.61 161.564 26.23C162.604 26.85 163.414 27.7 163.994 28.78C164.594 29.86 164.894 31.09 164.894 32.47C164.894 32.71 164.874 32.96 164.834 33.22C164.814 33.46 164.774 33.73 164.714 34.03H152.894V31.33H163.004L161.774 32.41C161.734 31.53 161.564 30.79 161.264 30.19C160.964 29.59 160.534 29.13 159.974 28.81C159.434 28.49 158.764 28.33 157.964 28.33C157.124 28.33 156.394 28.51 155.774 28.87C155.154 29.23 154.674 29.74 154.334 30.4C153.994 31.04 153.824 31.81 153.824 32.71C153.824 33.61 154.004 34.4 154.364 35.08C154.724 35.76 155.234 36.29 155.894 36.67C156.554 37.03 157.314 37.21 158.174 37.21C158.914 37.21 159.594 37.08 160.214 36.82C160.854 36.56 161.394 36.18 161.834 35.68L163.934 37.81C163.234 38.63 162.384 39.25 161.384 39.67C160.384 40.09 159.324 40.3 158.204 40.3Z" fill="white"/>
<defs>
<clipPath id="clip0_4520_1499">
<rect width="34" height="30" fill="white" transform="translate(0 14)"/>
</clipPath>
</defs>
</svg>
